<mxfile host="Electron" agent="Mozilla/5.0 (Windows NT 10.0; Win64; x64) AppleWebKit/537.36 (KHTML, like Gecko) draw.io/26.0.9 Chrome/128.0.6613.186 Electron/32.2.5 Safari/537.36" version="26.0.9">
  <diagram name="Страница — 1" id="HNarecre_0QCCOmJC7oq">
    <mxGraphModel dx="2836" dy="1640" grid="1" gridSize="10" guides="1" tooltips="1" connect="1" arrows="1" fold="1" page="1" pageScale="1" pageWidth="827" pageHeight="1169" math="0" shadow="0">
      <root>
        <mxCell id="0" />
        <mxCell id="1" parent="0" />
        <mxCell id="95WCk-WCtiNWoIf9ukJk-1" value="void printArray(const int* arr, int size)" style="shape=process;whiteSpace=wrap;html=1;backgroundOutline=1;" vertex="1" parent="1">
          <mxGeometry x="420" y="150" width="200" height="40" as="geometry" />
        </mxCell>
        <mxCell id="95WCk-WCtiNWoIf9ukJk-2" value="" style="edgeStyle=orthogonalEdgeStyle;rounded=0;orthogonalLoop=1;jettySize=auto;html=1;" edge="1" parent="1">
          <mxGeometry relative="1" as="geometry">
            <mxPoint x="513.9714285714285" y="190" as="sourcePoint" />
            <mxPoint x="513.9714285714285" y="210" as="targetPoint" />
          </mxGeometry>
        </mxCell>
        <mxCell id="95WCk-WCtiNWoIf9ukJk-3" style="edgeStyle=orthogonalEdgeStyle;rounded=0;orthogonalLoop=1;jettySize=auto;html=1;exitX=1;exitY=0.5;exitDx=0;exitDy=0;" edge="1" source="95WCk-WCtiNWoIf9ukJk-4" parent="1">
          <mxGeometry relative="1" as="geometry">
            <mxPoint x="760" y="290" as="targetPoint" />
          </mxGeometry>
        </mxCell>
        <mxCell id="95WCk-WCtiNWoIf9ukJk-4" value="" style="verticalLabelPosition=bottom;verticalAlign=top;html=1;shape=hexagon;perimeter=hexagonPerimeter2;arcSize=6;size=0.11951219512195121;" vertex="1" parent="1">
          <mxGeometry x="409.47142857142853" y="210" width="205" height="50" as="geometry" />
        </mxCell>
        <mxCell id="95WCk-WCtiNWoIf9ukJk-5" value="" style="edgeStyle=orthogonalEdgeStyle;rounded=0;orthogonalLoop=1;jettySize=auto;html=1;" edge="1" parent="1">
          <mxGeometry relative="1" as="geometry">
            <mxPoint x="513.7314285714285" y="260" as="sourcePoint" />
            <mxPoint x="513.9714285714285" y="280" as="targetPoint" />
          </mxGeometry>
        </mxCell>
        <mxCell id="95WCk-WCtiNWoIf9ukJk-6" value="for (int i = 0; i &amp;lt; size; i++)" style="text;html=1;align=center;verticalAlign=middle;whiteSpace=wrap;rounded=0;" vertex="1" parent="1">
          <mxGeometry x="453.97142857142853" y="220" width="120" height="30" as="geometry" />
        </mxCell>
        <mxCell id="95WCk-WCtiNWoIf9ukJk-7" value="" style="edgeStyle=orthogonalEdgeStyle;rounded=0;orthogonalLoop=1;jettySize=auto;html=1;entryX=0;entryY=0.5;entryDx=0;entryDy=0;" edge="1" target="95WCk-WCtiNWoIf9ukJk-4" parent="1">
          <mxGeometry relative="1" as="geometry">
            <mxPoint x="513.9714285714285" y="310" as="sourcePoint" />
            <mxPoint x="393.97142857142853" y="280" as="targetPoint" />
            <Array as="points">
              <mxPoint x="513.9714285714285" y="360" />
              <mxPoint x="389.97142857142853" y="360" />
              <mxPoint x="389.97142857142853" y="235" />
            </Array>
          </mxGeometry>
        </mxCell>
        <mxCell id="95WCk-WCtiNWoIf9ukJk-9" value="&amp;nbsp;cout &amp;lt;&amp;lt; arr[i] &amp;lt;&amp;lt; &quot; &quot;;" style="shape=parallelogram;perimeter=parallelogramPerimeter;whiteSpace=wrap;html=1;fixedSize=1;" vertex="1" parent="1">
          <mxGeometry x="440" y="280" width="150" height="40" as="geometry" />
        </mxCell>
        <mxCell id="95WCk-WCtiNWoIf9ukJk-12" style="edgeStyle=orthogonalEdgeStyle;rounded=0;orthogonalLoop=1;jettySize=auto;html=1;exitX=0.5;exitY=1;exitDx=0;exitDy=0;" edge="1" parent="1" source="95WCk-WCtiNWoIf9ukJk-11">
          <mxGeometry relative="1" as="geometry">
            <mxPoint x="752.1428571428571" y="350" as="targetPoint" />
          </mxGeometry>
        </mxCell>
        <mxCell id="95WCk-WCtiNWoIf9ukJk-11" value="cout &amp;lt;&amp;lt; endl;" style="shape=parallelogram;perimeter=parallelogramPerimeter;whiteSpace=wrap;html=1;fixedSize=1;" vertex="1" parent="1">
          <mxGeometry x="677" y="290" width="150" height="40" as="geometry" />
        </mxCell>
        <mxCell id="95WCk-WCtiNWoIf9ukJk-13" value="return;" style="ellipse;whiteSpace=wrap;html=1;" vertex="1" parent="1">
          <mxGeometry x="692" y="350" width="120" height="40" as="geometry" />
        </mxCell>
        <mxCell id="95WCk-WCtiNWoIf9ukJk-15" style="edgeStyle=orthogonalEdgeStyle;rounded=0;orthogonalLoop=1;jettySize=auto;html=1;exitX=0.5;exitY=1;exitDx=0;exitDy=0;" edge="1" parent="1" source="95WCk-WCtiNWoIf9ukJk-14">
          <mxGeometry relative="1" as="geometry">
            <mxPoint x="1229.888888888889" y="210" as="targetPoint" />
          </mxGeometry>
        </mxCell>
        <mxCell id="95WCk-WCtiNWoIf9ukJk-14" value="void printSeries(const int* arr, int start, int length)" style="shape=process;whiteSpace=wrap;html=1;backgroundOutline=1;" vertex="1" parent="1">
          <mxGeometry x="1090" y="150" width="280" height="40" as="geometry" />
        </mxCell>
        <mxCell id="95WCk-WCtiNWoIf9ukJk-16" value="cout &amp;lt;&amp;lt; &quot;[&quot;;" style="shape=parallelogram;perimeter=parallelogramPerimeter;whiteSpace=wrap;html=1;fixedSize=1;" vertex="1" parent="1">
          <mxGeometry x="1140" y="210" width="180" height="30" as="geometry" />
        </mxCell>
        <mxCell id="95WCk-WCtiNWoIf9ukJk-17" value="" style="edgeStyle=orthogonalEdgeStyle;rounded=0;orthogonalLoop=1;jettySize=auto;html=1;" edge="1" parent="1">
          <mxGeometry relative="1" as="geometry">
            <mxPoint x="1233.9714285714285" y="240" as="sourcePoint" />
            <mxPoint x="1233.9714285714285" y="260" as="targetPoint" />
          </mxGeometry>
        </mxCell>
        <mxCell id="95WCk-WCtiNWoIf9ukJk-18" style="edgeStyle=orthogonalEdgeStyle;rounded=0;orthogonalLoop=1;jettySize=auto;html=1;exitX=1;exitY=0.5;exitDx=0;exitDy=0;" edge="1" source="95WCk-WCtiNWoIf9ukJk-19" parent="1">
          <mxGeometry relative="1" as="geometry">
            <mxPoint x="1483.9714285714285" y="370" as="targetPoint" />
          </mxGeometry>
        </mxCell>
        <mxCell id="95WCk-WCtiNWoIf9ukJk-19" value="" style="verticalLabelPosition=bottom;verticalAlign=top;html=1;shape=hexagon;perimeter=hexagonPerimeter2;arcSize=6;size=0.11951219512195121;" vertex="1" parent="1">
          <mxGeometry x="1129.4714285714285" y="260" width="205" height="50" as="geometry" />
        </mxCell>
        <mxCell id="95WCk-WCtiNWoIf9ukJk-20" value="" style="edgeStyle=orthogonalEdgeStyle;rounded=0;orthogonalLoop=1;jettySize=auto;html=1;" edge="1" parent="1">
          <mxGeometry relative="1" as="geometry">
            <mxPoint x="1233.7314285714285" y="310" as="sourcePoint" />
            <mxPoint x="1233.9714285714285" y="330" as="targetPoint" />
          </mxGeometry>
        </mxCell>
        <mxCell id="95WCk-WCtiNWoIf9ukJk-21" value="for (int i = 0; i &amp;lt; length; i++)" style="text;html=1;align=center;verticalAlign=middle;whiteSpace=wrap;rounded=0;" vertex="1" parent="1">
          <mxGeometry x="1173.97" y="270" width="136.03" height="30" as="geometry" />
        </mxCell>
        <mxCell id="95WCk-WCtiNWoIf9ukJk-24" value="cout &amp;lt;&amp;lt; arr[start + i];" style="shape=parallelogram;perimeter=parallelogramPerimeter;whiteSpace=wrap;html=1;fixedSize=1;" vertex="1" parent="1">
          <mxGeometry x="1140" y="330" width="180" height="30" as="geometry" />
        </mxCell>
        <mxCell id="95WCk-WCtiNWoIf9ukJk-25" value="" style="edgeStyle=orthogonalEdgeStyle;rounded=0;orthogonalLoop=1;jettySize=auto;html=1;" edge="1" parent="1">
          <mxGeometry relative="1" as="geometry">
            <mxPoint x="1234.702857142857" y="360.0000000000001" as="sourcePoint" />
            <mxPoint x="1234.942857142857" y="380.0000000000001" as="targetPoint" />
          </mxGeometry>
        </mxCell>
        <mxCell id="95WCk-WCtiNWoIf9ukJk-26" value="" style="edgeStyle=orthogonalEdgeStyle;rounded=0;orthogonalLoop=1;jettySize=auto;html=1;" edge="1" parent="1">
          <mxGeometry relative="1" as="geometry">
            <mxPoint x="1234.942857142857" y="360.0000000000001" as="sourcePoint" />
            <mxPoint x="1234.942857142857" y="380.0000000000001" as="targetPoint" />
          </mxGeometry>
        </mxCell>
        <mxCell id="95WCk-WCtiNWoIf9ukJk-27" style="edgeStyle=orthogonalEdgeStyle;rounded=0;orthogonalLoop=1;jettySize=auto;html=1;exitX=0;exitY=0.5;exitDx=0;exitDy=0;" edge="1" source="95WCk-WCtiNWoIf9ukJk-29" parent="1">
          <mxGeometry relative="1" as="geometry">
            <mxPoint x="1091" y="470.0000000000001" as="targetPoint" />
          </mxGeometry>
        </mxCell>
        <mxCell id="95WCk-WCtiNWoIf9ukJk-28" style="edgeStyle=orthogonalEdgeStyle;rounded=0;orthogonalLoop=1;jettySize=auto;html=1;exitX=1;exitY=0.5;exitDx=0;exitDy=0;" edge="1" source="95WCk-WCtiNWoIf9ukJk-29" parent="1">
          <mxGeometry relative="1" as="geometry">
            <mxPoint x="1240" y="520" as="targetPoint" />
            <Array as="points">
              <mxPoint x="1340" y="420" />
              <mxPoint x="1340" y="520" />
            </Array>
          </mxGeometry>
        </mxCell>
        <mxCell id="95WCk-WCtiNWoIf9ukJk-29" value="if (i != length - 1)" style="rhombus;whiteSpace=wrap;html=1;" vertex="1" parent="1">
          <mxGeometry x="1171" y="380.0000000000001" width="130" height="80" as="geometry" />
        </mxCell>
        <mxCell id="95WCk-WCtiNWoIf9ukJk-30" style="edgeStyle=orthogonalEdgeStyle;rounded=0;orthogonalLoop=1;jettySize=auto;html=1;exitX=0.5;exitY=1;exitDx=0;exitDy=0;" edge="1" parent="1">
          <mxGeometry relative="1" as="geometry">
            <mxPoint x="1240.9999999999998" y="520.0000000000001" as="targetPoint" />
            <Array as="points">
              <mxPoint x="1091" y="520.0000000000001" />
            </Array>
            <mxPoint x="1091" y="500" as="sourcePoint" />
          </mxGeometry>
        </mxCell>
        <mxCell id="95WCk-WCtiNWoIf9ukJk-34" value="cout &amp;lt;&amp;lt; &quot; &quot;;" style="shape=parallelogram;perimeter=parallelogramPerimeter;whiteSpace=wrap;html=1;fixedSize=1;" vertex="1" parent="1">
          <mxGeometry x="1000" y="470" width="180" height="30" as="geometry" />
        </mxCell>
        <mxCell id="95WCk-WCtiNWoIf9ukJk-35" value="1" style="text;html=1;align=center;verticalAlign=middle;resizable=0;points=[];autosize=1;strokeColor=none;fillColor=none;" vertex="1" parent="1">
          <mxGeometry x="1155" y="388" width="30" height="30" as="geometry" />
        </mxCell>
        <mxCell id="95WCk-WCtiNWoIf9ukJk-36" value="0" style="text;html=1;align=center;verticalAlign=middle;resizable=0;points=[];autosize=1;strokeColor=none;fillColor=none;" vertex="1" parent="1">
          <mxGeometry x="1295" y="388" width="30" height="30" as="geometry" />
        </mxCell>
        <mxCell id="95WCk-WCtiNWoIf9ukJk-38" value="" style="endArrow=classic;html=1;rounded=0;entryX=0;entryY=0.5;entryDx=0;entryDy=0;" edge="1" parent="1" target="95WCk-WCtiNWoIf9ukJk-19">
          <mxGeometry width="50" height="50" relative="1" as="geometry">
            <mxPoint x="1240" y="520" as="sourcePoint" />
            <mxPoint x="1290" y="470" as="targetPoint" />
            <Array as="points">
              <mxPoint x="1240" y="540" />
              <mxPoint x="980" y="540" />
              <mxPoint x="980" y="285" />
            </Array>
          </mxGeometry>
        </mxCell>
        <mxCell id="95WCk-WCtiNWoIf9ukJk-39" value="{" style="text;html=1;align=center;verticalAlign=middle;resizable=0;points=[];autosize=1;strokeColor=none;fillColor=none;" vertex="1" parent="1">
          <mxGeometry x="1095" y="288" width="30" height="30" as="geometry" />
        </mxCell>
        <mxCell id="95WCk-WCtiNWoIf9ukJk-40" value="}" style="text;html=1;align=center;verticalAlign=middle;resizable=0;points=[];autosize=1;strokeColor=none;fillColor=none;" vertex="1" parent="1">
          <mxGeometry x="1235" y="518" width="30" height="30" as="geometry" />
        </mxCell>
        <mxCell id="95WCk-WCtiNWoIf9ukJk-41" value="cout &amp;lt;&amp;lt; &quot;]&quot;;" style="shape=parallelogram;perimeter=parallelogramPerimeter;whiteSpace=wrap;html=1;fixedSize=1;" vertex="1" parent="1">
          <mxGeometry x="1400" y="370" width="180" height="30" as="geometry" />
        </mxCell>
        <mxCell id="95WCk-WCtiNWoIf9ukJk-42" style="edgeStyle=orthogonalEdgeStyle;rounded=0;orthogonalLoop=1;jettySize=auto;html=1;exitX=0.5;exitY=1;exitDx=0;exitDy=0;" edge="1" parent="1">
          <mxGeometry relative="1" as="geometry">
            <mxPoint x="1490.142857142857" y="420" as="targetPoint" />
            <mxPoint x="1490" y="400" as="sourcePoint" />
          </mxGeometry>
        </mxCell>
        <mxCell id="95WCk-WCtiNWoIf9ukJk-43" value="return;" style="ellipse;whiteSpace=wrap;html=1;" vertex="1" parent="1">
          <mxGeometry x="1430" y="420" width="120" height="40" as="geometry" />
        </mxCell>
        <mxCell id="95WCk-WCtiNWoIf9ukJk-45" style="edgeStyle=orthogonalEdgeStyle;rounded=0;orthogonalLoop=1;jettySize=auto;html=1;exitX=0.5;exitY=1;exitDx=0;exitDy=0;" edge="1" parent="1" source="95WCk-WCtiNWoIf9ukJk-44">
          <mxGeometry relative="1" as="geometry">
            <mxPoint x="1230" y="660" as="targetPoint" />
          </mxGeometry>
        </mxCell>
        <mxCell id="95WCk-WCtiNWoIf9ukJk-44" value="int* merge(int* arr1, int size1, int* arr2, int size2)" style="shape=process;whiteSpace=wrap;html=1;backgroundOutline=1;" vertex="1" parent="1">
          <mxGeometry x="1060" y="600" width="340" height="40" as="geometry" />
        </mxCell>
        <mxCell id="95WCk-WCtiNWoIf9ukJk-46" value="int* result = new int[size1 + size2];" style="rounded=0;whiteSpace=wrap;html=1;" vertex="1" parent="1">
          <mxGeometry x="1100" y="660" width="260" height="30" as="geometry" />
        </mxCell>
        <mxCell id="95WCk-WCtiNWoIf9ukJk-47" style="edgeStyle=orthogonalEdgeStyle;rounded=0;orthogonalLoop=1;jettySize=auto;html=1;exitX=0.5;exitY=1;exitDx=0;exitDy=0;" edge="1" parent="1">
          <mxGeometry relative="1" as="geometry">
            <mxPoint x="1231.97" y="710" as="targetPoint" />
            <mxPoint x="1231.97" y="690" as="sourcePoint" />
          </mxGeometry>
        </mxCell>
        <mxCell id="95WCk-WCtiNWoIf9ukJk-49" style="edgeStyle=orthogonalEdgeStyle;rounded=0;orthogonalLoop=1;jettySize=auto;html=1;exitX=0.5;exitY=1;exitDx=0;exitDy=0;" edge="1" parent="1" source="95WCk-WCtiNWoIf9ukJk-48">
          <mxGeometry relative="1" as="geometry">
            <mxPoint x="1231.7142857142858" y="760" as="targetPoint" />
          </mxGeometry>
        </mxCell>
        <mxCell id="95WCk-WCtiNWoIf9ukJk-48" value="int i = 0, j = 0, k = 0;" style="rounded=0;whiteSpace=wrap;html=1;" vertex="1" parent="1">
          <mxGeometry x="1101.97" y="710" width="260" height="30" as="geometry" />
        </mxCell>
        <mxCell id="95WCk-WCtiNWoIf9ukJk-63" style="edgeStyle=orthogonalEdgeStyle;rounded=0;orthogonalLoop=1;jettySize=auto;html=1;exitX=1;exitY=0.5;exitDx=0;exitDy=0;" edge="1" parent="1" source="95WCk-WCtiNWoIf9ukJk-50">
          <mxGeometry relative="1" as="geometry">
            <mxPoint x="1700" y="850" as="targetPoint" />
          </mxGeometry>
        </mxCell>
        <mxCell id="95WCk-WCtiNWoIf9ukJk-50" value="while (i &amp;lt; size1 &amp;amp;&amp;amp; j &amp;lt; size2)" style="rhombus;whiteSpace=wrap;html=1;" vertex="1" parent="1">
          <mxGeometry x="1150" y="760" width="160" height="80" as="geometry" />
        </mxCell>
        <mxCell id="95WCk-WCtiNWoIf9ukJk-51" value="" style="edgeStyle=orthogonalEdgeStyle;rounded=0;orthogonalLoop=1;jettySize=auto;html=1;" edge="1" parent="1">
          <mxGeometry relative="1" as="geometry">
            <mxPoint x="1229.702857142857" y="840.0000000000001" as="sourcePoint" />
            <mxPoint x="1229.942857142857" y="860.0000000000001" as="targetPoint" />
          </mxGeometry>
        </mxCell>
        <mxCell id="95WCk-WCtiNWoIf9ukJk-52" value="" style="edgeStyle=orthogonalEdgeStyle;rounded=0;orthogonalLoop=1;jettySize=auto;html=1;" edge="1" parent="1">
          <mxGeometry relative="1" as="geometry">
            <mxPoint x="1229.942857142857" y="840.0000000000001" as="sourcePoint" />
            <mxPoint x="1229.942857142857" y="860.0000000000001" as="targetPoint" />
          </mxGeometry>
        </mxCell>
        <mxCell id="95WCk-WCtiNWoIf9ukJk-53" style="edgeStyle=orthogonalEdgeStyle;rounded=0;orthogonalLoop=1;jettySize=auto;html=1;exitX=0;exitY=0.5;exitDx=0;exitDy=0;" edge="1" source="95WCk-WCtiNWoIf9ukJk-55" parent="1">
          <mxGeometry relative="1" as="geometry">
            <mxPoint x="1086" y="950.0000000000001" as="targetPoint" />
          </mxGeometry>
        </mxCell>
        <mxCell id="95WCk-WCtiNWoIf9ukJk-54" style="edgeStyle=orthogonalEdgeStyle;rounded=0;orthogonalLoop=1;jettySize=auto;html=1;exitX=1;exitY=0.5;exitDx=0;exitDy=0;" edge="1" source="95WCk-WCtiNWoIf9ukJk-55" parent="1">
          <mxGeometry relative="1" as="geometry">
            <mxPoint x="1385.9999999999998" y="950.0000000000001" as="targetPoint" />
          </mxGeometry>
        </mxCell>
        <mxCell id="95WCk-WCtiNWoIf9ukJk-55" value="if (arr1[i] &amp;lt; arr2[j])" style="rhombus;whiteSpace=wrap;html=1;" vertex="1" parent="1">
          <mxGeometry x="1166" y="860.0000000000001" width="130" height="80" as="geometry" />
        </mxCell>
        <mxCell id="95WCk-WCtiNWoIf9ukJk-56" style="edgeStyle=orthogonalEdgeStyle;rounded=0;orthogonalLoop=1;jettySize=auto;html=1;exitX=0.5;exitY=1;exitDx=0;exitDy=0;" edge="1" source="95WCk-WCtiNWoIf9ukJk-57" parent="1">
          <mxGeometry relative="1" as="geometry">
            <mxPoint x="1235.9999999999998" y="1000.0000000000001" as="targetPoint" />
            <Array as="points">
              <mxPoint x="1086" y="1000.0000000000001" />
            </Array>
          </mxGeometry>
        </mxCell>
        <mxCell id="95WCk-WCtiNWoIf9ukJk-57" value="result[k++] = arr1[i++];" style="rounded=0;whiteSpace=wrap;html=1;" vertex="1" parent="1">
          <mxGeometry x="1026" y="950.0000000000001" width="120" height="30" as="geometry" />
        </mxCell>
        <mxCell id="95WCk-WCtiNWoIf9ukJk-58" style="edgeStyle=orthogonalEdgeStyle;rounded=0;orthogonalLoop=1;jettySize=auto;html=1;exitX=0.5;exitY=1;exitDx=0;exitDy=0;" edge="1" source="95WCk-WCtiNWoIf9ukJk-59" parent="1">
          <mxGeometry relative="1" as="geometry">
            <mxPoint x="1235.9999999999998" y="1000.0000000000001" as="targetPoint" />
            <Array as="points">
              <mxPoint x="1386" y="1000.0000000000001" />
            </Array>
          </mxGeometry>
        </mxCell>
        <mxCell id="95WCk-WCtiNWoIf9ukJk-59" value="result[k++] = arr2[j++];" style="rounded=0;whiteSpace=wrap;html=1;" vertex="1" parent="1">
          <mxGeometry x="1326" y="950.0000000000001" width="120" height="30" as="geometry" />
        </mxCell>
        <mxCell id="95WCk-WCtiNWoIf9ukJk-60" value="1" style="text;html=1;align=center;verticalAlign=middle;resizable=0;points=[];autosize=1;strokeColor=none;fillColor=none;" vertex="1" parent="1">
          <mxGeometry x="1135" y="868" width="30" height="30" as="geometry" />
        </mxCell>
        <mxCell id="95WCk-WCtiNWoIf9ukJk-61" value="0" style="text;html=1;align=center;verticalAlign=middle;resizable=0;points=[];autosize=1;strokeColor=none;fillColor=none;" vertex="1" parent="1">
          <mxGeometry x="1325" y="878" width="30" height="30" as="geometry" />
        </mxCell>
        <mxCell id="95WCk-WCtiNWoIf9ukJk-62" value="" style="endArrow=classic;html=1;rounded=0;entryX=0;entryY=0.5;entryDx=0;entryDy=0;" edge="1" parent="1" target="95WCk-WCtiNWoIf9ukJk-50">
          <mxGeometry width="50" height="50" relative="1" as="geometry">
            <mxPoint x="1240" y="1000" as="sourcePoint" />
            <mxPoint x="1290" y="950" as="targetPoint" />
            <Array as="points">
              <mxPoint x="1240" y="1020" />
              <mxPoint x="1010" y="1020" />
              <mxPoint x="1010" y="800" />
            </Array>
          </mxGeometry>
        </mxCell>
        <mxCell id="95WCk-WCtiNWoIf9ukJk-65" style="edgeStyle=orthogonalEdgeStyle;rounded=0;orthogonalLoop=1;jettySize=auto;html=1;exitX=0.5;exitY=1;exitDx=0;exitDy=0;" edge="1" parent="1" source="95WCk-WCtiNWoIf9ukJk-64">
          <mxGeometry relative="1" as="geometry">
            <mxPoint x="1700.2857142857142" y="950" as="targetPoint" />
          </mxGeometry>
        </mxCell>
        <mxCell id="95WCk-WCtiNWoIf9ukJk-68" style="edgeStyle=orthogonalEdgeStyle;rounded=0;orthogonalLoop=1;jettySize=auto;html=1;exitX=1;exitY=0.5;exitDx=0;exitDy=0;entryX=0.5;entryY=0;entryDx=0;entryDy=0;" edge="1" parent="1" source="95WCk-WCtiNWoIf9ukJk-64" target="95WCk-WCtiNWoIf9ukJk-70">
          <mxGeometry relative="1" as="geometry">
            <mxPoint x="1930" y="940" as="targetPoint" />
          </mxGeometry>
        </mxCell>
        <mxCell id="95WCk-WCtiNWoIf9ukJk-64" value="while (i &amp;lt; size1)" style="rhombus;whiteSpace=wrap;html=1;" vertex="1" parent="1">
          <mxGeometry x="1620" y="853" width="160" height="80" as="geometry" />
        </mxCell>
        <mxCell id="95WCk-WCtiNWoIf9ukJk-67" style="edgeStyle=orthogonalEdgeStyle;rounded=0;orthogonalLoop=1;jettySize=auto;html=1;exitX=0.5;exitY=1;exitDx=0;exitDy=0;entryX=0;entryY=0.5;entryDx=0;entryDy=0;" edge="1" parent="1" source="95WCk-WCtiNWoIf9ukJk-66" target="95WCk-WCtiNWoIf9ukJk-64">
          <mxGeometry relative="1" as="geometry" />
        </mxCell>
        <mxCell id="95WCk-WCtiNWoIf9ukJk-66" value="result[k++] = arr1[i++];" style="rounded=0;whiteSpace=wrap;html=1;" vertex="1" parent="1">
          <mxGeometry x="1640" y="950" width="120" height="40" as="geometry" />
        </mxCell>
        <mxCell id="95WCk-WCtiNWoIf9ukJk-69" style="edgeStyle=orthogonalEdgeStyle;rounded=0;orthogonalLoop=1;jettySize=auto;html=1;exitX=0.5;exitY=1;exitDx=0;exitDy=0;" edge="1" parent="1" source="95WCk-WCtiNWoIf9ukJk-70">
          <mxGeometry relative="1" as="geometry">
            <mxPoint x="1930.2857142857142" y="1047" as="targetPoint" />
          </mxGeometry>
        </mxCell>
        <mxCell id="95WCk-WCtiNWoIf9ukJk-73" style="edgeStyle=orthogonalEdgeStyle;rounded=0;orthogonalLoop=1;jettySize=auto;html=1;exitX=1;exitY=0.5;exitDx=0;exitDy=0;" edge="1" parent="1" source="95WCk-WCtiNWoIf9ukJk-70">
          <mxGeometry relative="1" as="geometry">
            <mxPoint x="2120" y="1040" as="targetPoint" />
          </mxGeometry>
        </mxCell>
        <mxCell id="95WCk-WCtiNWoIf9ukJk-70" value="while (j &amp;lt; size2)" style="rhombus;whiteSpace=wrap;html=1;" vertex="1" parent="1">
          <mxGeometry x="1850" y="950" width="160" height="80" as="geometry" />
        </mxCell>
        <mxCell id="95WCk-WCtiNWoIf9ukJk-71" style="edgeStyle=orthogonalEdgeStyle;rounded=0;orthogonalLoop=1;jettySize=auto;html=1;exitX=0.5;exitY=1;exitDx=0;exitDy=0;entryX=0;entryY=0.5;entryDx=0;entryDy=0;" edge="1" parent="1" source="95WCk-WCtiNWoIf9ukJk-72" target="95WCk-WCtiNWoIf9ukJk-70">
          <mxGeometry relative="1" as="geometry" />
        </mxCell>
        <mxCell id="95WCk-WCtiNWoIf9ukJk-72" value="result[k++] = arr2[j++];" style="rounded=0;whiteSpace=wrap;html=1;" vertex="1" parent="1">
          <mxGeometry x="1870" y="1047" width="120" height="40" as="geometry" />
        </mxCell>
        <mxCell id="95WCk-WCtiNWoIf9ukJk-74" value="&amp;nbsp; return result;" style="ellipse;whiteSpace=wrap;html=1;" vertex="1" parent="1">
          <mxGeometry x="2060" y="1040" width="120" height="40" as="geometry" />
        </mxCell>
        <mxCell id="95WCk-WCtiNWoIf9ukJk-75" value="{" style="text;html=1;align=center;verticalAlign=middle;resizable=0;points=[];autosize=1;strokeColor=none;fillColor=none;" vertex="1" parent="1">
          <mxGeometry x="1065" y="638" width="30" height="30" as="geometry" />
        </mxCell>
        <mxCell id="95WCk-WCtiNWoIf9ukJk-76" value="}" style="text;html=1;align=center;verticalAlign=middle;resizable=0;points=[];autosize=1;strokeColor=none;fillColor=none;" vertex="1" parent="1">
          <mxGeometry x="2145" y="1078" width="30" height="30" as="geometry" />
        </mxCell>
        <mxCell id="95WCk-WCtiNWoIf9ukJk-77" value="{" style="text;html=1;align=center;verticalAlign=middle;resizable=0;points=[];autosize=1;strokeColor=none;fillColor=none;" vertex="1" parent="1">
          <mxGeometry x="1105" y="198" width="30" height="30" as="geometry" />
        </mxCell>
        <mxCell id="95WCk-WCtiNWoIf9ukJk-78" value="}" style="text;html=1;align=center;verticalAlign=middle;resizable=0;points=[];autosize=1;strokeColor=none;fillColor=none;" vertex="1" parent="1">
          <mxGeometry x="1535" y="448" width="30" height="30" as="geometry" />
        </mxCell>
        <mxCell id="95WCk-WCtiNWoIf9ukJk-79" value="{" style="text;html=1;align=center;verticalAlign=middle;resizable=0;points=[];autosize=1;" vertex="1" parent="1">
          <mxGeometry x="383" y="194" width="30" height="30" as="geometry" />
        </mxCell>
        <mxCell id="95WCk-WCtiNWoIf9ukJk-80" value="}" style="text;html=1;align=center;verticalAlign=middle;resizable=0;points=[];autosize=1;strokeColor=none;fillColor=none;" vertex="1" parent="1">
          <mxGeometry x="765" y="388" width="30" height="30" as="geometry" />
        </mxCell>
        <mxCell id="95WCk-WCtiNWoIf9ukJk-81" value="int getNextRun(int* arr, int size, int pos)" style="shape=process;whiteSpace=wrap;html=1;backgroundOutline=1;" vertex="1" parent="1">
          <mxGeometry x="1030" y="1210" width="340" height="40" as="geometry" />
        </mxCell>
        <mxCell id="95WCk-WCtiNWoIf9ukJk-82" value="" style="edgeStyle=orthogonalEdgeStyle;rounded=0;orthogonalLoop=1;jettySize=auto;html=1;" edge="1" parent="1">
          <mxGeometry relative="1" as="geometry">
            <mxPoint x="1203.702857142857" y="1250" as="sourcePoint" />
            <mxPoint x="1203.942857142857" y="1270" as="targetPoint" />
          </mxGeometry>
        </mxCell>
        <mxCell id="95WCk-WCtiNWoIf9ukJk-83" value="" style="edgeStyle=orthogonalEdgeStyle;rounded=0;orthogonalLoop=1;jettySize=auto;html=1;" edge="1" parent="1">
          <mxGeometry relative="1" as="geometry">
            <mxPoint x="1203.942857142857" y="1250" as="sourcePoint" />
            <mxPoint x="1203.942857142857" y="1270" as="targetPoint" />
          </mxGeometry>
        </mxCell>
        <mxCell id="95WCk-WCtiNWoIf9ukJk-84" style="edgeStyle=orthogonalEdgeStyle;rounded=0;orthogonalLoop=1;jettySize=auto;html=1;exitX=0;exitY=0.5;exitDx=0;exitDy=0;" edge="1" source="95WCk-WCtiNWoIf9ukJk-86" parent="1">
          <mxGeometry relative="1" as="geometry">
            <mxPoint x="1060" y="1360" as="targetPoint" />
          </mxGeometry>
        </mxCell>
        <mxCell id="95WCk-WCtiNWoIf9ukJk-85" style="edgeStyle=orthogonalEdgeStyle;rounded=0;orthogonalLoop=1;jettySize=auto;html=1;exitX=1;exitY=0.5;exitDx=0;exitDy=0;" edge="1" source="95WCk-WCtiNWoIf9ukJk-86" parent="1">
          <mxGeometry relative="1" as="geometry">
            <mxPoint x="1210" y="1410" as="targetPoint" />
            <Array as="points">
              <mxPoint x="1340" y="1310" />
              <mxPoint x="1340" y="1410" />
            </Array>
          </mxGeometry>
        </mxCell>
        <mxCell id="95WCk-WCtiNWoIf9ukJk-86" value="&amp;nbsp;if (pos &amp;gt;= size)" style="rhombus;whiteSpace=wrap;html=1;" vertex="1" parent="1">
          <mxGeometry x="1140" y="1270" width="130" height="80" as="geometry" />
        </mxCell>
        <mxCell id="95WCk-WCtiNWoIf9ukJk-87" style="edgeStyle=orthogonalEdgeStyle;rounded=0;orthogonalLoop=1;jettySize=auto;html=1;exitX=0.5;exitY=1;exitDx=0;exitDy=0;" edge="1" parent="1">
          <mxGeometry relative="1" as="geometry">
            <mxPoint x="1209.9999999999998" y="1410" as="targetPoint" />
            <Array as="points">
              <mxPoint x="1060" y="1410" />
            </Array>
            <mxPoint x="1060" y="1390" as="sourcePoint" />
          </mxGeometry>
        </mxCell>
        <mxCell id="95WCk-WCtiNWoIf9ukJk-91" value="return 0;" style="ellipse;whiteSpace=wrap;html=1;" vertex="1" parent="1">
          <mxGeometry x="1000" y="1360" width="120" height="40" as="geometry" />
        </mxCell>
        <mxCell id="95WCk-WCtiNWoIf9ukJk-92" value="" style="endArrow=classic;html=1;rounded=0;" edge="1" parent="1">
          <mxGeometry width="50" height="50" relative="1" as="geometry">
            <mxPoint x="1209.97" y="1410" as="sourcePoint" />
            <mxPoint x="1210" y="1440" as="targetPoint" />
          </mxGeometry>
        </mxCell>
        <mxCell id="95WCk-WCtiNWoIf9ukJk-94" style="edgeStyle=orthogonalEdgeStyle;rounded=0;orthogonalLoop=1;jettySize=auto;html=1;exitX=0.5;exitY=1;exitDx=0;exitDy=0;" edge="1" parent="1" source="95WCk-WCtiNWoIf9ukJk-93">
          <mxGeometry relative="1" as="geometry">
            <mxPoint x="1210" y="1500" as="targetPoint" />
          </mxGeometry>
        </mxCell>
        <mxCell id="95WCk-WCtiNWoIf9ukJk-93" value="int length = 1;" style="rounded=0;whiteSpace=wrap;html=1;" vertex="1" parent="1">
          <mxGeometry x="1150" y="1440" width="120" height="40" as="geometry" />
        </mxCell>
        <mxCell id="95WCk-WCtiNWoIf9ukJk-97" style="edgeStyle=orthogonalEdgeStyle;rounded=0;orthogonalLoop=1;jettySize=auto;html=1;exitX=0.5;exitY=1;exitDx=0;exitDy=0;" edge="1" parent="1" source="95WCk-WCtiNWoIf9ukJk-96">
          <mxGeometry relative="1" as="geometry">
            <mxPoint x="1210" y="1630" as="targetPoint" />
          </mxGeometry>
        </mxCell>
        <mxCell id="95WCk-WCtiNWoIf9ukJk-100" style="edgeStyle=orthogonalEdgeStyle;rounded=0;orthogonalLoop=1;jettySize=auto;html=1;exitX=1;exitY=0.5;exitDx=0;exitDy=0;" edge="1" parent="1" source="95WCk-WCtiNWoIf9ukJk-96">
          <mxGeometry relative="1" as="geometry">
            <mxPoint x="1510" y="1620" as="targetPoint" />
          </mxGeometry>
        </mxCell>
        <mxCell id="95WCk-WCtiNWoIf9ukJk-96" value="while (pos + length &amp;lt; size &amp;amp;&amp;amp; arr[pos + length - 1]&amp;nbsp;&lt;div&gt;&amp;lt;= arr[pos + length])&lt;/div&gt;" style="rhombus;whiteSpace=wrap;html=1;" vertex="1" parent="1">
          <mxGeometry x="1050" y="1500" width="320" height="110" as="geometry" />
        </mxCell>
        <mxCell id="95WCk-WCtiNWoIf9ukJk-99" style="edgeStyle=orthogonalEdgeStyle;rounded=0;orthogonalLoop=1;jettySize=auto;html=1;exitX=0.5;exitY=1;exitDx=0;exitDy=0;entryX=0;entryY=0.5;entryDx=0;entryDy=0;" edge="1" parent="1" source="95WCk-WCtiNWoIf9ukJk-98" target="95WCk-WCtiNWoIf9ukJk-96">
          <mxGeometry relative="1" as="geometry" />
        </mxCell>
        <mxCell id="95WCk-WCtiNWoIf9ukJk-98" value="length++;" style="rounded=0;whiteSpace=wrap;html=1;" vertex="1" parent="1">
          <mxGeometry x="1150" y="1630" width="120" height="40" as="geometry" />
        </mxCell>
        <mxCell id="95WCk-WCtiNWoIf9ukJk-101" value="&amp;nbsp;return length;" style="ellipse;whiteSpace=wrap;html=1;" vertex="1" parent="1">
          <mxGeometry x="1450" y="1620" width="120" height="40" as="geometry" />
        </mxCell>
        <mxCell id="95WCk-WCtiNWoIf9ukJk-102" value="{" style="text;html=1;align=center;verticalAlign=middle;resizable=0;points=[];autosize=1;strokeColor=none;fillColor=none;" vertex="1" parent="1">
          <mxGeometry x="975" y="1268" width="30" height="30" as="geometry" />
        </mxCell>
        <mxCell id="95WCk-WCtiNWoIf9ukJk-104" value="}" style="text;html=1;align=center;verticalAlign=middle;resizable=0;points=[];autosize=1;strokeColor=none;fillColor=none;" vertex="1" parent="1">
          <mxGeometry x="1555" y="1668" width="30" height="30" as="geometry" />
        </mxCell>
        <mxCell id="95WCk-WCtiNWoIf9ukJk-105" value="1" style="text;html=1;align=center;verticalAlign=middle;resizable=0;points=[];autosize=1;strokeColor=none;fillColor=none;" vertex="1" parent="1">
          <mxGeometry x="1125" y="1268" width="30" height="30" as="geometry" />
        </mxCell>
        <mxCell id="95WCk-WCtiNWoIf9ukJk-106" value="0" style="text;html=1;align=center;verticalAlign=middle;resizable=0;points=[];autosize=1;strokeColor=none;fillColor=none;" vertex="1" parent="1">
          <mxGeometry x="1255" y="1268" width="30" height="30" as="geometry" />
        </mxCell>
        <mxCell id="95WCk-WCtiNWoIf9ukJk-107" value="void naturalMergeSort(int*&amp;amp; arr, int&amp;amp; size)" style="shape=process;whiteSpace=wrap;html=1;backgroundOutline=1;" vertex="1" parent="1">
          <mxGeometry x="1880" y="1220" width="340" height="40" as="geometry" />
        </mxCell>
        <mxCell id="95WCk-WCtiNWoIf9ukJk-108" value="" style="edgeStyle=orthogonalEdgeStyle;rounded=0;orthogonalLoop=1;jettySize=auto;html=1;" edge="1" parent="1">
          <mxGeometry relative="1" as="geometry">
            <mxPoint x="2043.702857142857" y="1260" as="sourcePoint" />
            <mxPoint x="2043.942857142857" y="1280" as="targetPoint" />
          </mxGeometry>
        </mxCell>
        <mxCell id="95WCk-WCtiNWoIf9ukJk-109" value="" style="edgeStyle=orthogonalEdgeStyle;rounded=0;orthogonalLoop=1;jettySize=auto;html=1;" edge="1" parent="1">
          <mxGeometry relative="1" as="geometry">
            <mxPoint x="2043.942857142857" y="1260" as="sourcePoint" />
            <mxPoint x="2043.942857142857" y="1280" as="targetPoint" />
          </mxGeometry>
        </mxCell>
        <mxCell id="95WCk-WCtiNWoIf9ukJk-110" style="edgeStyle=orthogonalEdgeStyle;rounded=0;orthogonalLoop=1;jettySize=auto;html=1;exitX=0;exitY=0.5;exitDx=0;exitDy=0;" edge="1" source="95WCk-WCtiNWoIf9ukJk-112" parent="1">
          <mxGeometry relative="1" as="geometry">
            <mxPoint x="1900" y="1370" as="targetPoint" />
          </mxGeometry>
        </mxCell>
        <mxCell id="95WCk-WCtiNWoIf9ukJk-111" style="edgeStyle=orthogonalEdgeStyle;rounded=0;orthogonalLoop=1;jettySize=auto;html=1;exitX=1;exitY=0.5;exitDx=0;exitDy=0;" edge="1" source="95WCk-WCtiNWoIf9ukJk-112" parent="1">
          <mxGeometry relative="1" as="geometry">
            <mxPoint x="2050" y="1420" as="targetPoint" />
            <Array as="points">
              <mxPoint x="2150" y="1320" />
              <mxPoint x="2150" y="1420" />
            </Array>
          </mxGeometry>
        </mxCell>
        <mxCell id="95WCk-WCtiNWoIf9ukJk-112" value="if (i == 0)" style="rhombus;whiteSpace=wrap;html=1;" vertex="1" parent="1">
          <mxGeometry x="1980" y="1280" width="130" height="80" as="geometry" />
        </mxCell>
        <mxCell id="95WCk-WCtiNWoIf9ukJk-113" style="edgeStyle=orthogonalEdgeStyle;rounded=0;orthogonalLoop=1;jettySize=auto;html=1;exitX=0.5;exitY=1;exitDx=0;exitDy=0;" edge="1" parent="1">
          <mxGeometry relative="1" as="geometry">
            <mxPoint x="2050" y="1420" as="targetPoint" />
            <Array as="points">
              <mxPoint x="1900" y="1420" />
            </Array>
            <mxPoint x="1900" y="1400" as="sourcePoint" />
          </mxGeometry>
        </mxCell>
        <mxCell id="95WCk-WCtiNWoIf9ukJk-117" value="&amp;nbsp;return;" style="ellipse;whiteSpace=wrap;html=1;" vertex="1" parent="1">
          <mxGeometry x="1840" y="1370" width="120" height="40" as="geometry" />
        </mxCell>
        <mxCell id="95WCk-WCtiNWoIf9ukJk-118" value="" style="endArrow=classic;html=1;rounded=0;" edge="1" parent="1">
          <mxGeometry width="50" height="50" relative="1" as="geometry">
            <mxPoint x="2050" y="1420" as="sourcePoint" />
            <mxPoint x="2050" y="1450" as="targetPoint" />
          </mxGeometry>
        </mxCell>
        <mxCell id="95WCk-WCtiNWoIf9ukJk-119" value="int* temp_sort_1 = nullptr;" style="rounded=0;whiteSpace=wrap;html=1;" vertex="1" parent="1">
          <mxGeometry x="1975" y="1450" width="140" height="40" as="geometry" />
        </mxCell>
        <mxCell id="95WCk-WCtiNWoIf9ukJk-120" value="" style="endArrow=classic;html=1;rounded=0;" edge="1" parent="1">
          <mxGeometry width="50" height="50" relative="1" as="geometry">
            <mxPoint x="2050" y="1490" as="sourcePoint" />
            <mxPoint x="2050" y="1520" as="targetPoint" />
          </mxGeometry>
        </mxCell>
        <mxCell id="95WCk-WCtiNWoIf9ukJk-121" value="int temp_size_1 = 0;" style="rounded=0;whiteSpace=wrap;html=1;" vertex="1" parent="1">
          <mxGeometry x="1975" y="1520" width="140" height="40" as="geometry" />
        </mxCell>
        <mxCell id="95WCk-WCtiNWoIf9ukJk-122" value="" style="endArrow=classic;html=1;rounded=0;" edge="1" parent="1">
          <mxGeometry width="50" height="50" relative="1" as="geometry">
            <mxPoint x="2050" y="1560" as="sourcePoint" />
            <mxPoint x="2050" y="1590" as="targetPoint" />
          </mxGeometry>
        </mxCell>
        <mxCell id="95WCk-WCtiNWoIf9ukJk-123" value="temp_size_1 = getNextRun(arr, size, 0);" style="rounded=0;whiteSpace=wrap;html=1;" vertex="1" parent="1">
          <mxGeometry x="1975" y="1590" width="140" height="40" as="geometry" />
        </mxCell>
        <mxCell id="95WCk-WCtiNWoIf9ukJk-124" value="" style="endArrow=classic;html=1;rounded=0;" edge="1" parent="1">
          <mxGeometry width="50" height="50" relative="1" as="geometry">
            <mxPoint x="2050" y="1630" as="sourcePoint" />
            <mxPoint x="2050" y="1660" as="targetPoint" />
          </mxGeometry>
        </mxCell>
        <mxCell id="95WCk-WCtiNWoIf9ukJk-125" value="temp_sort_1 = new int[temp_size_1];" style="rounded=0;whiteSpace=wrap;html=1;" vertex="1" parent="1">
          <mxGeometry x="1975" y="1660" width="140" height="40" as="geometry" />
        </mxCell>
        <mxCell id="95WCk-WCtiNWoIf9ukJk-126" value="" style="edgeStyle=orthogonalEdgeStyle;rounded=0;orthogonalLoop=1;jettySize=auto;html=1;" edge="1" parent="1">
          <mxGeometry relative="1" as="geometry">
            <mxPoint x="2053.9714285714285" y="1700" as="sourcePoint" />
            <mxPoint x="2053.9714285714285" y="1720" as="targetPoint" />
          </mxGeometry>
        </mxCell>
        <mxCell id="95WCk-WCtiNWoIf9ukJk-127" style="edgeStyle=orthogonalEdgeStyle;rounded=0;orthogonalLoop=1;jettySize=auto;html=1;exitX=1;exitY=0.5;exitDx=0;exitDy=0;" edge="1" source="95WCk-WCtiNWoIf9ukJk-128" parent="1">
          <mxGeometry relative="1" as="geometry">
            <mxPoint x="2303.9714285714285" y="1830" as="targetPoint" />
          </mxGeometry>
        </mxCell>
        <mxCell id="95WCk-WCtiNWoIf9ukJk-128" value="" style="verticalLabelPosition=bottom;verticalAlign=top;html=1;shape=hexagon;perimeter=hexagonPerimeter2;arcSize=6;size=0.11951219512195121;" vertex="1" parent="1">
          <mxGeometry x="1949.4714285714285" y="1720" width="205" height="50" as="geometry" />
        </mxCell>
        <mxCell id="95WCk-WCtiNWoIf9ukJk-129" value="" style="edgeStyle=orthogonalEdgeStyle;rounded=0;orthogonalLoop=1;jettySize=auto;html=1;" edge="1" parent="1">
          <mxGeometry relative="1" as="geometry">
            <mxPoint x="2053.7314285714283" y="1770" as="sourcePoint" />
            <mxPoint x="2053.9714285714285" y="1790" as="targetPoint" />
          </mxGeometry>
        </mxCell>
        <mxCell id="95WCk-WCtiNWoIf9ukJk-130" value="for (int i = 0; i &amp;lt; temp_size_1; i++)" style="text;html=1;align=center;verticalAlign=middle;whiteSpace=wrap;rounded=0;" vertex="1" parent="1">
          <mxGeometry x="1993.9714285714285" y="1730" width="120" height="30" as="geometry" />
        </mxCell>
        <mxCell id="95WCk-WCtiNWoIf9ukJk-131" value="" style="edgeStyle=orthogonalEdgeStyle;rounded=0;orthogonalLoop=1;jettySize=auto;html=1;entryX=0;entryY=0.5;entryDx=0;entryDy=0;" edge="1" target="95WCk-WCtiNWoIf9ukJk-128" parent="1">
          <mxGeometry relative="1" as="geometry">
            <mxPoint x="2053.9714285714285" y="1820" as="sourcePoint" />
            <mxPoint x="1933.9714285714285" y="1790" as="targetPoint" />
            <Array as="points">
              <mxPoint x="2053.9714285714285" y="1870" />
              <mxPoint x="1929.9714285714285" y="1870" />
              <mxPoint x="1929.9714285714285" y="1745" />
            </Array>
          </mxGeometry>
        </mxCell>
        <mxCell id="95WCk-WCtiNWoIf9ukJk-132" value="temp_sort_1[i] = arr[i];" style="rounded=0;whiteSpace=wrap;html=1;" vertex="1" parent="1">
          <mxGeometry x="1993.9714285714285" y="1790" width="120" height="30" as="geometry" />
        </mxCell>
        <mxCell id="95WCk-WCtiNWoIf9ukJk-134" style="edgeStyle=orthogonalEdgeStyle;rounded=0;orthogonalLoop=1;jettySize=auto;html=1;exitX=0.5;exitY=1;exitDx=0;exitDy=0;" edge="1" parent="1" source="95WCk-WCtiNWoIf9ukJk-133">
          <mxGeometry relative="1" as="geometry">
            <mxPoint x="2314.939393939394" y="1890" as="targetPoint" />
          </mxGeometry>
        </mxCell>
        <mxCell id="95WCk-WCtiNWoIf9ukJk-133" value="cout &amp;lt;&amp;lt; &quot;Начальная&amp;nbsp;&lt;div&gt;серия: &quot;;&lt;/div&gt;" style="shape=parallelogram;perimeter=parallelogramPerimeter;whiteSpace=wrap;html=1;fixedSize=1;" vertex="1" parent="1">
          <mxGeometry x="2230" y="1830" width="170" height="40" as="geometry" />
        </mxCell>
        <mxCell id="95WCk-WCtiNWoIf9ukJk-136" style="edgeStyle=orthogonalEdgeStyle;rounded=0;orthogonalLoop=1;jettySize=auto;html=1;exitX=0.5;exitY=1;exitDx=0;exitDy=0;" edge="1" parent="1" source="95WCk-WCtiNWoIf9ukJk-135">
          <mxGeometry relative="1" as="geometry">
            <mxPoint x="2314.939393939394" y="1940" as="targetPoint" />
          </mxGeometry>
        </mxCell>
        <mxCell id="95WCk-WCtiNWoIf9ukJk-135" value="printSeries(arr, 0, temp_size_1);" style="rounded=0;whiteSpace=wrap;html=1;" vertex="1" parent="1">
          <mxGeometry x="2255.0014285714287" y="1890" width="120" height="30" as="geometry" />
        </mxCell>
        <mxCell id="95WCk-WCtiNWoIf9ukJk-137" value="cout &amp;lt;&amp;lt; endl;" style="shape=parallelogram;perimeter=parallelogramPerimeter;whiteSpace=wrap;html=1;fixedSize=1;" vertex="1" parent="1">
          <mxGeometry x="2230" y="1940" width="170" height="40" as="geometry" />
        </mxCell>
        <mxCell id="95WCk-WCtiNWoIf9ukJk-139" style="edgeStyle=orthogonalEdgeStyle;rounded=0;orthogonalLoop=1;jettySize=auto;html=1;exitX=0.5;exitY=1;exitDx=0;exitDy=0;" edge="1" parent="1">
          <mxGeometry relative="1" as="geometry">
            <mxPoint x="2314.939393939394" y="2000" as="targetPoint" />
            <mxPoint x="2315" y="1980" as="sourcePoint" />
          </mxGeometry>
        </mxCell>
        <mxCell id="95WCk-WCtiNWoIf9ukJk-140" value="int pos = temp_size_1;" style="rounded=0;whiteSpace=wrap;html=1;" vertex="1" parent="1">
          <mxGeometry x="2255.0014285714287" y="2000" width="120" height="30" as="geometry" />
        </mxCell>
        <mxCell id="95WCk-WCtiNWoIf9ukJk-141" style="edgeStyle=orthogonalEdgeStyle;rounded=0;orthogonalLoop=1;jettySize=auto;html=1;exitX=0.5;exitY=1;exitDx=0;exitDy=0;" edge="1" parent="1">
          <mxGeometry relative="1" as="geometry">
            <mxPoint x="2314.939393939394" y="2050" as="targetPoint" />
            <mxPoint x="2315" y="2030" as="sourcePoint" />
          </mxGeometry>
        </mxCell>
        <mxCell id="95WCk-WCtiNWoIf9ukJk-143" style="edgeStyle=orthogonalEdgeStyle;rounded=0;orthogonalLoop=1;jettySize=auto;html=1;exitX=0.5;exitY=1;exitDx=0;exitDy=0;" edge="1" parent="1" source="95WCk-WCtiNWoIf9ukJk-142">
          <mxGeometry relative="1" as="geometry">
            <mxPoint x="2315" y="2100" as="targetPoint" />
          </mxGeometry>
        </mxCell>
        <mxCell id="95WCk-WCtiNWoIf9ukJk-142" value="bool flag = true;" style="rounded=0;whiteSpace=wrap;html=1;" vertex="1" parent="1">
          <mxGeometry x="2255.0014285714287" y="2050" width="120" height="30" as="geometry" />
        </mxCell>
        <mxCell id="95WCk-WCtiNWoIf9ukJk-145" style="edgeStyle=orthogonalEdgeStyle;rounded=0;orthogonalLoop=1;jettySize=auto;html=1;exitX=0.5;exitY=1;exitDx=0;exitDy=0;" edge="1" parent="1" source="95WCk-WCtiNWoIf9ukJk-144">
          <mxGeometry relative="1" as="geometry">
            <mxPoint x="2315" y="2200" as="targetPoint" />
          </mxGeometry>
        </mxCell>
        <mxCell id="95WCk-WCtiNWoIf9ukJk-204" style="edgeStyle=orthogonalEdgeStyle;rounded=0;orthogonalLoop=1;jettySize=auto;html=1;exitX=1;exitY=0.5;exitDx=0;exitDy=0;" edge="1" parent="1" source="95WCk-WCtiNWoIf9ukJk-144">
          <mxGeometry relative="1" as="geometry">
            <mxPoint x="2740" y="2200" as="targetPoint" />
          </mxGeometry>
        </mxCell>
        <mxCell id="95WCk-WCtiNWoIf9ukJk-144" value="while (pos &amp;lt; size &amp;amp;&amp;amp; flag)" style="rhombus;whiteSpace=wrap;html=1;" vertex="1" parent="1">
          <mxGeometry x="2220" y="2100" width="190" height="80" as="geometry" />
        </mxCell>
        <mxCell id="95WCk-WCtiNWoIf9ukJk-146" value="int run_length = getNextRun(arr, size, pos);" style="rounded=0;whiteSpace=wrap;html=1;" vertex="1" parent="1">
          <mxGeometry x="2220" y="2200" width="190" height="30" as="geometry" />
        </mxCell>
        <mxCell id="95WCk-WCtiNWoIf9ukJk-147" style="edgeStyle=orthogonalEdgeStyle;rounded=0;orthogonalLoop=1;jettySize=auto;html=1;exitX=0.5;exitY=1;exitDx=0;exitDy=0;" edge="1" parent="1">
          <mxGeometry relative="1" as="geometry">
            <mxPoint x="2315" y="2250" as="targetPoint" />
            <mxPoint x="2315" y="2230" as="sourcePoint" />
          </mxGeometry>
        </mxCell>
        <mxCell id="95WCk-WCtiNWoIf9ukJk-148" value="flag = (run_length &amp;gt; 0);" style="rounded=0;whiteSpace=wrap;html=1;" vertex="1" parent="1">
          <mxGeometry x="2220" y="2250" width="190" height="30" as="geometry" />
        </mxCell>
        <mxCell id="95WCk-WCtiNWoIf9ukJk-149" value="" style="edgeStyle=orthogonalEdgeStyle;rounded=0;orthogonalLoop=1;jettySize=auto;html=1;" edge="1" parent="1">
          <mxGeometry relative="1" as="geometry">
            <mxPoint x="2317.7028571428573" y="2280" as="sourcePoint" />
            <mxPoint x="2317.942857142857" y="2300" as="targetPoint" />
          </mxGeometry>
        </mxCell>
        <mxCell id="95WCk-WCtiNWoIf9ukJk-150" value="" style="edgeStyle=orthogonalEdgeStyle;rounded=0;orthogonalLoop=1;jettySize=auto;html=1;" edge="1" parent="1">
          <mxGeometry relative="1" as="geometry">
            <mxPoint x="2317.942857142857" y="2280" as="sourcePoint" />
            <mxPoint x="2317.942857142857" y="2300" as="targetPoint" />
          </mxGeometry>
        </mxCell>
        <mxCell id="95WCk-WCtiNWoIf9ukJk-151" style="edgeStyle=orthogonalEdgeStyle;rounded=0;orthogonalLoop=1;jettySize=auto;html=1;exitX=0;exitY=0.5;exitDx=0;exitDy=0;" edge="1" source="95WCk-WCtiNWoIf9ukJk-153" parent="1">
          <mxGeometry relative="1" as="geometry">
            <mxPoint x="2174" y="2390" as="targetPoint" />
          </mxGeometry>
        </mxCell>
        <mxCell id="95WCk-WCtiNWoIf9ukJk-192" style="edgeStyle=orthogonalEdgeStyle;rounded=0;orthogonalLoop=1;jettySize=auto;html=1;exitX=0.969;exitY=0.5;exitDx=0;exitDy=0;exitPerimeter=0;" edge="1" parent="1" source="95WCk-WCtiNWoIf9ukJk-153">
          <mxGeometry relative="1" as="geometry">
            <mxPoint x="2540" y="3050" as="targetPoint" />
            <mxPoint x="2420" y="2338" as="sourcePoint" />
            <Array as="points">
              <mxPoint x="2380" y="2338" />
              <mxPoint x="2577" y="2338" />
              <mxPoint x="2577" y="3048" />
              <mxPoint x="2550" y="3048" />
              <mxPoint x="2550" y="3050" />
            </Array>
          </mxGeometry>
        </mxCell>
        <mxCell id="95WCk-WCtiNWoIf9ukJk-153" value="if (flag)" style="rhombus;whiteSpace=wrap;html=1;" vertex="1" parent="1">
          <mxGeometry x="2254" y="2300" width="130" height="80" as="geometry" />
        </mxCell>
        <mxCell id="95WCk-WCtiNWoIf9ukJk-155" value="int* run = new int[run_length];" style="rounded=0;whiteSpace=wrap;html=1;" vertex="1" parent="1">
          <mxGeometry x="2114" y="2390" width="120" height="30" as="geometry" />
        </mxCell>
        <mxCell id="95WCk-WCtiNWoIf9ukJk-166" value="" style="edgeStyle=orthogonalEdgeStyle;rounded=0;orthogonalLoop=1;jettySize=auto;html=1;" edge="1" parent="1">
          <mxGeometry relative="1" as="geometry">
            <mxPoint x="2173.9714285714285" y="2420" as="sourcePoint" />
            <mxPoint x="2173.9714285714285" y="2440" as="targetPoint" />
          </mxGeometry>
        </mxCell>
        <mxCell id="95WCk-WCtiNWoIf9ukJk-167" style="edgeStyle=orthogonalEdgeStyle;rounded=0;orthogonalLoop=1;jettySize=auto;html=1;exitX=1;exitY=0.5;exitDx=0;exitDy=0;" edge="1" source="95WCk-WCtiNWoIf9ukJk-168" parent="1">
          <mxGeometry relative="1" as="geometry">
            <mxPoint x="2423.9714285714285" y="2550" as="targetPoint" />
          </mxGeometry>
        </mxCell>
        <mxCell id="95WCk-WCtiNWoIf9ukJk-168" value="" style="verticalLabelPosition=bottom;verticalAlign=top;html=1;shape=hexagon;perimeter=hexagonPerimeter2;arcSize=6;size=0.11951219512195121;" vertex="1" parent="1">
          <mxGeometry x="2069.4714285714285" y="2440" width="205" height="50" as="geometry" />
        </mxCell>
        <mxCell id="95WCk-WCtiNWoIf9ukJk-169" value="" style="edgeStyle=orthogonalEdgeStyle;rounded=0;orthogonalLoop=1;jettySize=auto;html=1;" edge="1" parent="1">
          <mxGeometry relative="1" as="geometry">
            <mxPoint x="2173.7314285714283" y="2490" as="sourcePoint" />
            <mxPoint x="2173.9714285714285" y="2510" as="targetPoint" />
          </mxGeometry>
        </mxCell>
        <mxCell id="95WCk-WCtiNWoIf9ukJk-170" value="for (int i = 0; i &amp;lt; run_length; i++)" style="text;html=1;align=center;verticalAlign=middle;whiteSpace=wrap;rounded=0;" vertex="1" parent="1">
          <mxGeometry x="2113.9714285714285" y="2450" width="120" height="30" as="geometry" />
        </mxCell>
        <mxCell id="95WCk-WCtiNWoIf9ukJk-171" value="" style="edgeStyle=orthogonalEdgeStyle;rounded=0;orthogonalLoop=1;jettySize=auto;html=1;entryX=0;entryY=0.5;entryDx=0;entryDy=0;" edge="1" target="95WCk-WCtiNWoIf9ukJk-168" parent="1">
          <mxGeometry relative="1" as="geometry">
            <mxPoint x="2173.9714285714285" y="2540" as="sourcePoint" />
            <mxPoint x="2053.9714285714285" y="2510" as="targetPoint" />
            <Array as="points">
              <mxPoint x="2173.9714285714285" y="2590" />
              <mxPoint x="2049.9714285714285" y="2590" />
              <mxPoint x="2049.9714285714285" y="2465" />
            </Array>
          </mxGeometry>
        </mxCell>
        <mxCell id="95WCk-WCtiNWoIf9ukJk-172" value="run[i] = arr[pos + i];" style="rounded=0;whiteSpace=wrap;html=1;" vertex="1" parent="1">
          <mxGeometry x="2113.9714285714285" y="2510" width="120" height="30" as="geometry" />
        </mxCell>
        <mxCell id="95WCk-WCtiNWoIf9ukJk-173" value="cout &amp;lt;&amp;lt; &quot;Слияние серий: &quot;;" style="shape=parallelogram;perimeter=parallelogramPerimeter;whiteSpace=wrap;html=1;fixedSize=1;" vertex="1" parent="1">
          <mxGeometry x="2360" y="2550" width="120" height="30" as="geometry" />
        </mxCell>
        <mxCell id="95WCk-WCtiNWoIf9ukJk-174" value="" style="edgeStyle=orthogonalEdgeStyle;rounded=0;orthogonalLoop=1;jettySize=auto;html=1;" edge="1" parent="1">
          <mxGeometry relative="1" as="geometry">
            <mxPoint x="2420.7614285714285" y="2580" as="sourcePoint" />
            <mxPoint x="2421.0014285714287" y="2600" as="targetPoint" />
          </mxGeometry>
        </mxCell>
        <mxCell id="95WCk-WCtiNWoIf9ukJk-175" value="printSeries(temp_sort_1, 0, temp_size_1);" style="rounded=0;whiteSpace=wrap;html=1;" vertex="1" parent="1">
          <mxGeometry x="2320" y="2600" width="190" height="30" as="geometry" />
        </mxCell>
        <mxCell id="95WCk-WCtiNWoIf9ukJk-176" value="" style="edgeStyle=orthogonalEdgeStyle;rounded=0;orthogonalLoop=1;jettySize=auto;html=1;" edge="1" parent="1">
          <mxGeometry relative="1" as="geometry">
            <mxPoint x="2420.7614285714285" y="2630" as="sourcePoint" />
            <mxPoint x="2421.0014285714287" y="2650" as="targetPoint" />
          </mxGeometry>
        </mxCell>
        <mxCell id="95WCk-WCtiNWoIf9ukJk-177" value="printSeries(arr, pos, run_length);" style="rounded=0;whiteSpace=wrap;html=1;" vertex="1" parent="1">
          <mxGeometry x="2320" y="2650" width="190" height="30" as="geometry" />
        </mxCell>
        <mxCell id="95WCk-WCtiNWoIf9ukJk-178" value="" style="edgeStyle=orthogonalEdgeStyle;rounded=0;orthogonalLoop=1;jettySize=auto;html=1;" edge="1" parent="1">
          <mxGeometry relative="1" as="geometry">
            <mxPoint x="2420.7614285714285" y="2680" as="sourcePoint" />
            <mxPoint x="2421.0014285714287" y="2700" as="targetPoint" />
          </mxGeometry>
        </mxCell>
        <mxCell id="95WCk-WCtiNWoIf9ukJk-179" value="int* merged = merge(temp_sort_1, temp_size_1, run, run_length);" style="rounded=0;whiteSpace=wrap;html=1;" vertex="1" parent="1">
          <mxGeometry x="2320" y="2700" width="190" height="30" as="geometry" />
        </mxCell>
        <mxCell id="95WCk-WCtiNWoIf9ukJk-180" value="" style="edgeStyle=orthogonalEdgeStyle;rounded=0;orthogonalLoop=1;jettySize=auto;html=1;" edge="1" parent="1">
          <mxGeometry relative="1" as="geometry">
            <mxPoint x="2420.7614285714285" y="2730" as="sourcePoint" />
            <mxPoint x="2421.0014285714287" y="2750" as="targetPoint" />
          </mxGeometry>
        </mxCell>
        <mxCell id="95WCk-WCtiNWoIf9ukJk-181" value="delete[] temp_sort_1;" style="rounded=0;whiteSpace=wrap;html=1;" vertex="1" parent="1">
          <mxGeometry x="2320" y="2750" width="190" height="30" as="geometry" />
        </mxCell>
        <mxCell id="95WCk-WCtiNWoIf9ukJk-182" value="" style="edgeStyle=orthogonalEdgeStyle;rounded=0;orthogonalLoop=1;jettySize=auto;html=1;" edge="1" parent="1">
          <mxGeometry relative="1" as="geometry">
            <mxPoint x="2420.7614285714285" y="2780" as="sourcePoint" />
            <mxPoint x="2421.0014285714287" y="2800" as="targetPoint" />
          </mxGeometry>
        </mxCell>
        <mxCell id="95WCk-WCtiNWoIf9ukJk-183" value="delete[] run;" style="rounded=0;whiteSpace=wrap;html=1;" vertex="1" parent="1">
          <mxGeometry x="2320" y="2800" width="190" height="30" as="geometry" />
        </mxCell>
        <mxCell id="95WCk-WCtiNWoIf9ukJk-184" value="" style="edgeStyle=orthogonalEdgeStyle;rounded=0;orthogonalLoop=1;jettySize=auto;html=1;" edge="1" parent="1">
          <mxGeometry relative="1" as="geometry">
            <mxPoint x="2420.7614285714285" y="2830" as="sourcePoint" />
            <mxPoint x="2421.0014285714287" y="2850" as="targetPoint" />
          </mxGeometry>
        </mxCell>
        <mxCell id="95WCk-WCtiNWoIf9ukJk-185" value="temp_sort_1 = merged;" style="rounded=0;whiteSpace=wrap;html=1;" vertex="1" parent="1">
          <mxGeometry x="2320" y="2850" width="190" height="30" as="geometry" />
        </mxCell>
        <mxCell id="95WCk-WCtiNWoIf9ukJk-186" value="" style="edgeStyle=orthogonalEdgeStyle;rounded=0;orthogonalLoop=1;jettySize=auto;html=1;" edge="1" parent="1">
          <mxGeometry relative="1" as="geometry">
            <mxPoint x="2420.7614285714285" y="2880" as="sourcePoint" />
            <mxPoint x="2421.0014285714287" y="2900" as="targetPoint" />
          </mxGeometry>
        </mxCell>
        <mxCell id="95WCk-WCtiNWoIf9ukJk-187" value="temp_size_1 += run_length;" style="rounded=0;whiteSpace=wrap;html=1;" vertex="1" parent="1">
          <mxGeometry x="2320" y="2900" width="190" height="30" as="geometry" />
        </mxCell>
        <mxCell id="95WCk-WCtiNWoIf9ukJk-188" value="" style="edgeStyle=orthogonalEdgeStyle;rounded=0;orthogonalLoop=1;jettySize=auto;html=1;" edge="1" parent="1">
          <mxGeometry relative="1" as="geometry">
            <mxPoint x="2420.7614285714285" y="2930" as="sourcePoint" />
            <mxPoint x="2421.0014285714287" y="2950" as="targetPoint" />
          </mxGeometry>
        </mxCell>
        <mxCell id="95WCk-WCtiNWoIf9ukJk-189" value="pos += run_length;" style="rounded=0;whiteSpace=wrap;html=1;" vertex="1" parent="1">
          <mxGeometry x="2320" y="2950" width="190" height="30" as="geometry" />
        </mxCell>
        <mxCell id="95WCk-WCtiNWoIf9ukJk-190" value="" style="edgeStyle=orthogonalEdgeStyle;rounded=0;orthogonalLoop=1;jettySize=auto;html=1;" edge="1" parent="1">
          <mxGeometry relative="1" as="geometry">
            <mxPoint x="2420.7614285714285" y="2980" as="sourcePoint" />
            <mxPoint x="2421.0014285714287" y="3000" as="targetPoint" />
          </mxGeometry>
        </mxCell>
        <mxCell id="95WCk-WCtiNWoIf9ukJk-193" style="edgeStyle=orthogonalEdgeStyle;rounded=0;orthogonalLoop=1;jettySize=auto;html=1;exitX=0.5;exitY=1;exitDx=0;exitDy=0;" edge="1" parent="1" source="95WCk-WCtiNWoIf9ukJk-191">
          <mxGeometry relative="1" as="geometry">
            <mxPoint x="2540" y="3050" as="targetPoint" />
            <Array as="points">
              <mxPoint x="2415" y="3050" />
            </Array>
          </mxGeometry>
        </mxCell>
        <mxCell id="95WCk-WCtiNWoIf9ukJk-191" value="printArray(temp_sort_1, temp_size_1);" style="rounded=0;whiteSpace=wrap;html=1;" vertex="1" parent="1">
          <mxGeometry x="2320" y="3000" width="190" height="30" as="geometry" />
        </mxCell>
        <mxCell id="95WCk-WCtiNWoIf9ukJk-195" value="" style="edgeStyle=orthogonalEdgeStyle;rounded=0;orthogonalLoop=1;jettySize=auto;html=1;entryX=0;entryY=0.5;entryDx=0;entryDy=0;" edge="1" parent="1" target="95WCk-WCtiNWoIf9ukJk-144">
          <mxGeometry relative="1" as="geometry">
            <mxPoint x="2540.7614285714285" y="3050" as="sourcePoint" />
            <mxPoint x="2541.0014285714287" y="3070" as="targetPoint" />
            <Array as="points">
              <mxPoint x="2541" y="3090" />
              <mxPoint x="2030" y="3090" />
              <mxPoint x="2030" y="2140" />
            </Array>
          </mxGeometry>
        </mxCell>
        <mxCell id="95WCk-WCtiNWoIf9ukJk-196" value="delete[] arr;" style="rounded=0;whiteSpace=wrap;html=1;" vertex="1" parent="1">
          <mxGeometry x="2650" y="2200" width="190" height="30" as="geometry" />
        </mxCell>
        <mxCell id="95WCk-WCtiNWoIf9ukJk-197" value="" style="edgeStyle=orthogonalEdgeStyle;rounded=0;orthogonalLoop=1;jettySize=auto;html=1;" edge="1" parent="1">
          <mxGeometry relative="1" as="geometry">
            <mxPoint x="2750.7614285714285" y="2230" as="sourcePoint" />
            <mxPoint x="2751.0014285714287" y="2250" as="targetPoint" />
          </mxGeometry>
        </mxCell>
        <mxCell id="95WCk-WCtiNWoIf9ukJk-199" style="edgeStyle=orthogonalEdgeStyle;rounded=0;orthogonalLoop=1;jettySize=auto;html=1;exitX=0.5;exitY=1;exitDx=0;exitDy=0;" edge="1" parent="1" source="95WCk-WCtiNWoIf9ukJk-198">
          <mxGeometry relative="1" as="geometry">
            <mxPoint x="2745.1428571428573" y="2300" as="targetPoint" />
          </mxGeometry>
        </mxCell>
        <mxCell id="95WCk-WCtiNWoIf9ukJk-198" value="arr = temp_sort_1;" style="rounded=0;whiteSpace=wrap;html=1;" vertex="1" parent="1">
          <mxGeometry x="2650" y="2250" width="190" height="30" as="geometry" />
        </mxCell>
        <mxCell id="95WCk-WCtiNWoIf9ukJk-200" value="return;" style="ellipse;whiteSpace=wrap;html=1;" vertex="1" parent="1">
          <mxGeometry x="2685" y="2300" width="120" height="50" as="geometry" />
        </mxCell>
        <mxCell id="95WCk-WCtiNWoIf9ukJk-202" value="{" style="text;html=1;align=center;verticalAlign=middle;resizable=0;points=[];autosize=1;strokeColor=none;fillColor=none;" vertex="1" parent="1">
          <mxGeometry x="2145" y="2338" width="30" height="30" as="geometry" />
        </mxCell>
        <mxCell id="95WCk-WCtiNWoIf9ukJk-203" value="}" style="text;html=1;align=center;verticalAlign=middle;resizable=0;points=[];autosize=1;strokeColor=none;fillColor=none;" vertex="1" parent="1">
          <mxGeometry x="2375" y="3038" width="30" height="30" as="geometry" />
        </mxCell>
        <mxCell id="95WCk-WCtiNWoIf9ukJk-205" value="{" style="text;html=1;align=center;verticalAlign=middle;resizable=0;points=[];autosize=1;strokeColor=none;fillColor=none;" vertex="1" parent="1">
          <mxGeometry x="2175" y="2158" width="30" height="30" as="geometry" />
        </mxCell>
        <mxCell id="95WCk-WCtiNWoIf9ukJk-206" value="}" style="text;html=1;align=center;verticalAlign=middle;resizable=0;points=[];autosize=1;strokeColor=none;fillColor=none;" vertex="1" parent="1">
          <mxGeometry x="2485" y="3088" width="30" height="30" as="geometry" />
        </mxCell>
        <mxCell id="95WCk-WCtiNWoIf9ukJk-207" value="1" style="text;html=1;align=center;verticalAlign=middle;resizable=0;points=[];autosize=1;strokeColor=none;fillColor=none;" vertex="1" parent="1">
          <mxGeometry x="2235" y="2298" width="30" height="30" as="geometry" />
        </mxCell>
        <mxCell id="95WCk-WCtiNWoIf9ukJk-208" value="0" style="text;html=1;align=center;verticalAlign=middle;resizable=0;points=[];autosize=1;strokeColor=none;fillColor=none;" vertex="1" parent="1">
          <mxGeometry x="2415" y="2298" width="30" height="30" as="geometry" />
        </mxCell>
        <mxCell id="95WCk-WCtiNWoIf9ukJk-209" value="" style="edgeStyle=orthogonalEdgeStyle;rounded=0;orthogonalLoop=1;jettySize=auto;html=1;" edge="1" source="95WCk-WCtiNWoIf9ukJk-210" parent="1">
          <mxGeometry relative="1" as="geometry">
            <mxPoint x="3440" y="1080" as="targetPoint" />
          </mxGeometry>
        </mxCell>
        <mxCell id="95WCk-WCtiNWoIf9ukJk-210" value="Начало" style="ellipse;whiteSpace=wrap;html=1;" vertex="1" parent="1">
          <mxGeometry x="3380" y="1010" width="120" height="40" as="geometry" />
        </mxCell>
        <mxCell id="95WCk-WCtiNWoIf9ukJk-211" value="" style="edgeStyle=orthogonalEdgeStyle;rounded=0;orthogonalLoop=1;jettySize=auto;html=1;" edge="1" source="95WCk-WCtiNWoIf9ukJk-212" parent="1">
          <mxGeometry relative="1" as="geometry">
            <mxPoint x="3440" y="1130" as="targetPoint" />
          </mxGeometry>
        </mxCell>
        <mxCell id="95WCk-WCtiNWoIf9ukJk-212" value="int main()" style="shape=process;whiteSpace=wrap;html=1;backgroundOutline=1;" vertex="1" parent="1">
          <mxGeometry x="3380" y="1080" width="120" height="30" as="geometry" />
        </mxCell>
        <mxCell id="95WCk-WCtiNWoIf9ukJk-215" value="setlocale(LC_ALL, &quot;Russian&quot;);" style="rounded=0;whiteSpace=wrap;html=1;" vertex="1" parent="1">
          <mxGeometry x="3380" y="1130" width="120" height="30" as="geometry" />
        </mxCell>
        <mxCell id="95WCk-WCtiNWoIf9ukJk-216" value="" style="edgeStyle=orthogonalEdgeStyle;rounded=0;orthogonalLoop=1;jettySize=auto;html=1;" edge="1" parent="1">
          <mxGeometry relative="1" as="geometry">
            <mxPoint x="3440" y="1160" as="sourcePoint" />
            <mxPoint x="3440" y="1180" as="targetPoint" />
          </mxGeometry>
        </mxCell>
        <mxCell id="95WCk-WCtiNWoIf9ukJk-217" value="&lt;div&gt;#define _CRT_SECURE_NO_WARNINGS&lt;/div&gt;&lt;div&gt;#include &amp;lt;iostream&amp;gt;&lt;/div&gt;&lt;div&gt;#include &amp;lt;cstdio&amp;gt;&lt;/div&gt;&lt;div&gt;using namespace std;&lt;/div&gt;&lt;div&gt;&lt;div&gt;int count = 0;&lt;/div&gt;&lt;div&gt;int num;&lt;/div&gt;&lt;/div&gt;" style="strokeWidth=2;html=1;shape=mxgraph.flowchart.annotation_2;align=left;labelPosition=right;pointerEvents=1;" vertex="1" parent="1">
          <mxGeometry x="3520" y="1010" width="50" height="100" as="geometry" />
        </mxCell>
        <mxCell id="95WCk-WCtiNWoIf9ukJk-218" value="" style="endArrow=none;dashed=1;html=1;rounded=0;entryX=-0.04;entryY=0.503;entryDx=0;entryDy=0;entryPerimeter=0;" edge="1" target="95WCk-WCtiNWoIf9ukJk-217" parent="1">
          <mxGeometry width="50" height="50" relative="1" as="geometry">
            <mxPoint x="3440" y="1060" as="sourcePoint" />
            <mxPoint x="3510" y="1060" as="targetPoint" />
          </mxGeometry>
        </mxCell>
        <mxCell id="95WCk-WCtiNWoIf9ukJk-220" style="edgeStyle=orthogonalEdgeStyle;rounded=0;orthogonalLoop=1;jettySize=auto;html=1;exitX=0.5;exitY=1;exitDx=0;exitDy=0;" edge="1" parent="1" source="95WCk-WCtiNWoIf9ukJk-219">
          <mxGeometry relative="1" as="geometry">
            <mxPoint x="3440" y="1230" as="targetPoint" />
          </mxGeometry>
        </mxCell>
        <mxCell id="95WCk-WCtiNWoIf9ukJk-219" value="FILE* file = fopen(&quot;data.txt&quot;, &quot;r&quot;);" style="rounded=0;whiteSpace=wrap;html=1;" vertex="1" parent="1">
          <mxGeometry x="3350" y="1180" width="200" height="30" as="geometry" />
        </mxCell>
        <mxCell id="95WCk-WCtiNWoIf9ukJk-222" style="edgeStyle=orthogonalEdgeStyle;rounded=0;orthogonalLoop=1;jettySize=auto;html=1;exitX=0.5;exitY=1;exitDx=0;exitDy=0;" edge="1" parent="1" source="95WCk-WCtiNWoIf9ukJk-221">
          <mxGeometry relative="1" as="geometry">
            <mxPoint x="3440" y="1330" as="targetPoint" />
          </mxGeometry>
        </mxCell>
        <mxCell id="95WCk-WCtiNWoIf9ukJk-225" style="edgeStyle=orthogonalEdgeStyle;rounded=0;orthogonalLoop=1;jettySize=auto;html=1;exitX=1;exitY=0.5;exitDx=0;exitDy=0;" edge="1" parent="1" source="95WCk-WCtiNWoIf9ukJk-221">
          <mxGeometry relative="1" as="geometry">
            <mxPoint x="3640" y="1330" as="targetPoint" />
          </mxGeometry>
        </mxCell>
        <mxCell id="95WCk-WCtiNWoIf9ukJk-221" value="while (fscanf(file, &quot;%d&quot;,&lt;div&gt;&amp;nbsp;&amp;amp;num) == 1)&lt;/div&gt;" style="rhombus;whiteSpace=wrap;html=1;" vertex="1" parent="1">
          <mxGeometry x="3340" y="1230" width="200" height="80" as="geometry" />
        </mxCell>
        <mxCell id="95WCk-WCtiNWoIf9ukJk-224" style="edgeStyle=orthogonalEdgeStyle;rounded=0;orthogonalLoop=1;jettySize=auto;html=1;exitX=0.5;exitY=1;exitDx=0;exitDy=0;entryX=0;entryY=0.5;entryDx=0;entryDy=0;" edge="1" parent="1" source="95WCk-WCtiNWoIf9ukJk-223" target="95WCk-WCtiNWoIf9ukJk-221">
          <mxGeometry relative="1" as="geometry" />
        </mxCell>
        <mxCell id="95WCk-WCtiNWoIf9ukJk-223" value="count++;" style="rounded=0;whiteSpace=wrap;html=1;" vertex="1" parent="1">
          <mxGeometry x="3380" y="1330" width="120" height="30" as="geometry" />
        </mxCell>
        <mxCell id="95WCk-WCtiNWoIf9ukJk-226" value="rewind(file);" style="rounded=0;whiteSpace=wrap;html=1;" vertex="1" parent="1">
          <mxGeometry x="3580" y="1330" width="120" height="30" as="geometry" />
        </mxCell>
        <mxCell id="95WCk-WCtiNWoIf9ukJk-228" style="edgeStyle=orthogonalEdgeStyle;rounded=0;orthogonalLoop=1;jettySize=auto;html=1;exitX=0.5;exitY=1;exitDx=0;exitDy=0;" edge="1" parent="1">
          <mxGeometry relative="1" as="geometry">
            <mxPoint x="3640" y="1380" as="targetPoint" />
            <mxPoint x="3640" y="1360" as="sourcePoint" />
          </mxGeometry>
        </mxCell>
        <mxCell id="95WCk-WCtiNWoIf9ukJk-229" value="int* arr = new int[count];" style="rounded=0;whiteSpace=wrap;html=1;" vertex="1" parent="1">
          <mxGeometry x="3580" y="1380" width="120" height="30" as="geometry" />
        </mxCell>
        <mxCell id="95WCk-WCtiNWoIf9ukJk-230" value="" style="edgeStyle=orthogonalEdgeStyle;rounded=0;orthogonalLoop=1;jettySize=auto;html=1;" edge="1" parent="1">
          <mxGeometry relative="1" as="geometry">
            <mxPoint x="3643.9714285714285" y="1410" as="sourcePoint" />
            <mxPoint x="3643.9714285714285" y="1430" as="targetPoint" />
          </mxGeometry>
        </mxCell>
        <mxCell id="95WCk-WCtiNWoIf9ukJk-231" style="edgeStyle=orthogonalEdgeStyle;rounded=0;orthogonalLoop=1;jettySize=auto;html=1;exitX=1;exitY=0.5;exitDx=0;exitDy=0;" edge="1" source="95WCk-WCtiNWoIf9ukJk-232" parent="1">
          <mxGeometry relative="1" as="geometry">
            <mxPoint x="3893.9714285714285" y="1540" as="targetPoint" />
          </mxGeometry>
        </mxCell>
        <mxCell id="95WCk-WCtiNWoIf9ukJk-232" value="" style="verticalLabelPosition=bottom;verticalAlign=top;html=1;shape=hexagon;perimeter=hexagonPerimeter2;arcSize=6;size=0.11951219512195121;" vertex="1" parent="1">
          <mxGeometry x="3539.4714285714285" y="1430" width="205" height="50" as="geometry" />
        </mxCell>
        <mxCell id="95WCk-WCtiNWoIf9ukJk-233" value="" style="edgeStyle=orthogonalEdgeStyle;rounded=0;orthogonalLoop=1;jettySize=auto;html=1;" edge="1" parent="1">
          <mxGeometry relative="1" as="geometry">
            <mxPoint x="3643.7314285714283" y="1480" as="sourcePoint" />
            <mxPoint x="3643.9714285714285" y="1500" as="targetPoint" />
          </mxGeometry>
        </mxCell>
        <mxCell id="95WCk-WCtiNWoIf9ukJk-234" value="for (int i = 0; i &amp;lt; count; i++)" style="text;html=1;align=center;verticalAlign=middle;whiteSpace=wrap;rounded=0;" vertex="1" parent="1">
          <mxGeometry x="3583.9714285714285" y="1440" width="120" height="30" as="geometry" />
        </mxCell>
        <mxCell id="95WCk-WCtiNWoIf9ukJk-235" value="" style="edgeStyle=orthogonalEdgeStyle;rounded=0;orthogonalLoop=1;jettySize=auto;html=1;entryX=0;entryY=0.5;entryDx=0;entryDy=0;" edge="1" target="95WCk-WCtiNWoIf9ukJk-232" parent="1">
          <mxGeometry relative="1" as="geometry">
            <mxPoint x="3643.9714285714285" y="1530" as="sourcePoint" />
            <mxPoint x="3523.9714285714285" y="1500" as="targetPoint" />
            <Array as="points">
              <mxPoint x="3643.9714285714285" y="1580" />
              <mxPoint x="3519.9714285714285" y="1580" />
              <mxPoint x="3519.9714285714285" y="1455" />
            </Array>
          </mxGeometry>
        </mxCell>
        <mxCell id="95WCk-WCtiNWoIf9ukJk-236" value="fscanf(file, &quot;%d&quot;, &amp;amp;arr[i]);" style="rounded=0;whiteSpace=wrap;html=1;" vertex="1" parent="1">
          <mxGeometry x="3583.9714285714285" y="1500" width="120" height="30" as="geometry" />
        </mxCell>
        <mxCell id="95WCk-WCtiNWoIf9ukJk-239" style="edgeStyle=orthogonalEdgeStyle;rounded=0;orthogonalLoop=1;jettySize=auto;html=1;exitX=0.5;exitY=1;exitDx=0;exitDy=0;" edge="1" parent="1" source="95WCk-WCtiNWoIf9ukJk-238">
          <mxGeometry relative="1" as="geometry">
            <mxPoint x="3899.7777777777774" y="1590" as="targetPoint" />
          </mxGeometry>
        </mxCell>
        <mxCell id="95WCk-WCtiNWoIf9ukJk-238" value="&amp;nbsp; fclose(file);" style="rounded=0;whiteSpace=wrap;html=1;" vertex="1" parent="1">
          <mxGeometry x="3840.0014285714287" y="1540" width="120" height="30" as="geometry" />
        </mxCell>
        <mxCell id="95WCk-WCtiNWoIf9ukJk-241" style="edgeStyle=orthogonalEdgeStyle;rounded=0;orthogonalLoop=1;jettySize=auto;html=1;exitX=0.5;exitY=1;exitDx=0;exitDy=0;" edge="1" parent="1" source="95WCk-WCtiNWoIf9ukJk-240">
          <mxGeometry relative="1" as="geometry">
            <mxPoint x="3894.7777777777774" y="1650" as="targetPoint" />
          </mxGeometry>
        </mxCell>
        <mxCell id="95WCk-WCtiNWoIf9ukJk-240" value="cout &lt;&lt; &quot;Исходный массив: &quot;;" style="shape=parallelogram;perimeter=parallelogramPerimeter;whiteSpace=wrap;html=1;fixedSize=1;" vertex="1" parent="1">
          <mxGeometry x="3820" y="1590" width="150" height="40" as="geometry" />
        </mxCell>
        <mxCell id="95WCk-WCtiNWoIf9ukJk-242" value="printArray(arr, count);" style="rounded=0;whiteSpace=wrap;html=1;" vertex="1" parent="1">
          <mxGeometry x="3835.0014285714287" y="1650" width="120" height="30" as="geometry" />
        </mxCell>
        <mxCell id="95WCk-WCtiNWoIf9ukJk-243" style="edgeStyle=orthogonalEdgeStyle;rounded=0;orthogonalLoop=1;jettySize=auto;html=1;exitX=0.5;exitY=1;exitDx=0;exitDy=0;" edge="1" parent="1">
          <mxGeometry relative="1" as="geometry">
            <mxPoint x="3894.7777777777774" y="1700" as="targetPoint" />
            <mxPoint x="3895" y="1680" as="sourcePoint" />
          </mxGeometry>
        </mxCell>
        <mxCell id="95WCk-WCtiNWoIf9ukJk-244" value="naturalMergeSort(arr, count);" style="rounded=0;whiteSpace=wrap;html=1;" vertex="1" parent="1">
          <mxGeometry x="3835.0014285714287" y="1700" width="120" height="30" as="geometry" />
        </mxCell>
        <mxCell id="95WCk-WCtiNWoIf9ukJk-245" style="edgeStyle=orthogonalEdgeStyle;rounded=0;orthogonalLoop=1;jettySize=auto;html=1;exitX=0.5;exitY=1;exitDx=0;exitDy=0;" edge="1" parent="1">
          <mxGeometry relative="1" as="geometry">
            <mxPoint x="3889.7777777777774" y="1750" as="targetPoint" />
            <mxPoint x="3890" y="1730" as="sourcePoint" />
          </mxGeometry>
        </mxCell>
        <mxCell id="95WCk-WCtiNWoIf9ukJk-246" style="edgeStyle=orthogonalEdgeStyle;rounded=0;orthogonalLoop=1;jettySize=auto;html=1;exitX=0.5;exitY=1;exitDx=0;exitDy=0;" edge="1" parent="1" source="95WCk-WCtiNWoIf9ukJk-247">
          <mxGeometry relative="1" as="geometry">
            <mxPoint x="3884.7777777777774" y="1810" as="targetPoint" />
          </mxGeometry>
        </mxCell>
        <mxCell id="95WCk-WCtiNWoIf9ukJk-247" value="cout &lt;&lt; &quot;Отсортированный массив: &quot;;" style="shape=parallelogram;perimeter=parallelogramPerimeter;whiteSpace=wrap;html=1;fixedSize=1;" vertex="1" parent="1">
          <mxGeometry x="3810" y="1750" width="150" height="40" as="geometry" />
        </mxCell>
        <mxCell id="95WCk-WCtiNWoIf9ukJk-248" value="printArray(arr, count);" style="rounded=0;whiteSpace=wrap;html=1;" vertex="1" parent="1">
          <mxGeometry x="3825.0014285714287" y="1810" width="120" height="30" as="geometry" />
        </mxCell>
        <mxCell id="95WCk-WCtiNWoIf9ukJk-249" style="edgeStyle=orthogonalEdgeStyle;rounded=0;orthogonalLoop=1;jettySize=auto;html=1;exitX=0.5;exitY=1;exitDx=0;exitDy=0;" edge="1" parent="1">
          <mxGeometry relative="1" as="geometry">
            <mxPoint x="3884.7777777777774" y="1860" as="targetPoint" />
            <mxPoint x="3885" y="1840" as="sourcePoint" />
          </mxGeometry>
        </mxCell>
        <mxCell id="95WCk-WCtiNWoIf9ukJk-250" value="FILE* outFile = fopen(&quot;result.txt&quot;, &quot;w&quot;);" style="rounded=0;whiteSpace=wrap;html=1;" vertex="1" parent="1">
          <mxGeometry x="3790" y="1860" width="180" height="30" as="geometry" />
        </mxCell>
        <mxCell id="95WCk-WCtiNWoIf9ukJk-251" value="" style="edgeStyle=orthogonalEdgeStyle;rounded=0;orthogonalLoop=1;jettySize=auto;html=1;" edge="1" parent="1">
          <mxGeometry relative="1" as="geometry">
            <mxPoint x="3893.9714285714285" y="1890" as="sourcePoint" />
            <mxPoint x="3893.9714285714285" y="1910" as="targetPoint" />
          </mxGeometry>
        </mxCell>
        <mxCell id="95WCk-WCtiNWoIf9ukJk-252" style="edgeStyle=orthogonalEdgeStyle;rounded=0;orthogonalLoop=1;jettySize=auto;html=1;exitX=1;exitY=0.5;exitDx=0;exitDy=0;" edge="1" source="95WCk-WCtiNWoIf9ukJk-253" parent="1">
          <mxGeometry relative="1" as="geometry">
            <mxPoint x="4143.971428571429" y="2020" as="targetPoint" />
          </mxGeometry>
        </mxCell>
        <mxCell id="95WCk-WCtiNWoIf9ukJk-253" value="" style="verticalLabelPosition=bottom;verticalAlign=top;html=1;shape=hexagon;perimeter=hexagonPerimeter2;arcSize=6;size=0.11951219512195121;" vertex="1" parent="1">
          <mxGeometry x="3789.4714285714285" y="1910" width="205" height="50" as="geometry" />
        </mxCell>
        <mxCell id="95WCk-WCtiNWoIf9ukJk-254" value="" style="edgeStyle=orthogonalEdgeStyle;rounded=0;orthogonalLoop=1;jettySize=auto;html=1;" edge="1" parent="1">
          <mxGeometry relative="1" as="geometry">
            <mxPoint x="3893.7314285714283" y="1960" as="sourcePoint" />
            <mxPoint x="3893.9714285714285" y="1980" as="targetPoint" />
          </mxGeometry>
        </mxCell>
        <mxCell id="95WCk-WCtiNWoIf9ukJk-255" value="for (int i = 0; i &amp;lt; count; i++)" style="text;html=1;align=center;verticalAlign=middle;whiteSpace=wrap;rounded=0;" vertex="1" parent="1">
          <mxGeometry x="3833.9714285714285" y="1920" width="120" height="30" as="geometry" />
        </mxCell>
        <mxCell id="95WCk-WCtiNWoIf9ukJk-256" value="" style="edgeStyle=orthogonalEdgeStyle;rounded=0;orthogonalLoop=1;jettySize=auto;html=1;entryX=0;entryY=0.5;entryDx=0;entryDy=0;" edge="1" target="95WCk-WCtiNWoIf9ukJk-253" parent="1">
          <mxGeometry relative="1" as="geometry">
            <mxPoint x="3893.9714285714285" y="2010" as="sourcePoint" />
            <mxPoint x="3773.9714285714285" y="1980" as="targetPoint" />
            <Array as="points">
              <mxPoint x="3893.9714285714285" y="2060" />
              <mxPoint x="3769.9714285714285" y="2060" />
              <mxPoint x="3769.9714285714285" y="1935" />
            </Array>
          </mxGeometry>
        </mxCell>
        <mxCell id="95WCk-WCtiNWoIf9ukJk-257" value="fprintf(outFile, &quot;%d &quot;, arr[i]);" style="rounded=0;whiteSpace=wrap;html=1;" vertex="1" parent="1">
          <mxGeometry x="3833.9714285714285" y="1980" width="120" height="30" as="geometry" />
        </mxCell>
        <mxCell id="95WCk-WCtiNWoIf9ukJk-259" style="edgeStyle=orthogonalEdgeStyle;rounded=0;orthogonalLoop=1;jettySize=auto;html=1;exitX=0.5;exitY=1;exitDx=0;exitDy=0;" edge="1" parent="1" source="95WCk-WCtiNWoIf9ukJk-258">
          <mxGeometry relative="1" as="geometry">
            <mxPoint x="4139.777777777777" y="2070" as="targetPoint" />
          </mxGeometry>
        </mxCell>
        <mxCell id="95WCk-WCtiNWoIf9ukJk-258" value="&amp;nbsp;fclose(outFile);" style="rounded=0;whiteSpace=wrap;html=1;" vertex="1" parent="1">
          <mxGeometry x="4080.0014285714287" y="2020" width="120" height="30" as="geometry" />
        </mxCell>
        <mxCell id="95WCk-WCtiNWoIf9ukJk-261" style="edgeStyle=orthogonalEdgeStyle;rounded=0;orthogonalLoop=1;jettySize=auto;html=1;exitX=0.5;exitY=1;exitDx=0;exitDy=0;" edge="1" parent="1" source="95WCk-WCtiNWoIf9ukJk-260">
          <mxGeometry relative="1" as="geometry">
            <mxPoint x="4129.777777777777" y="2120" as="targetPoint" />
          </mxGeometry>
        </mxCell>
        <mxCell id="95WCk-WCtiNWoIf9ukJk-260" value="delete[] arr;" style="rounded=0;whiteSpace=wrap;html=1;" vertex="1" parent="1">
          <mxGeometry x="4070.0014285714287" y="2070" width="120" height="30" as="geometry" />
        </mxCell>
        <mxCell id="95WCk-WCtiNWoIf9ukJk-262" value="return 0;" style="ellipse;whiteSpace=wrap;html=1;" vertex="1" parent="1">
          <mxGeometry x="4070" y="2120" width="120" height="50" as="geometry" />
        </mxCell>
        <mxCell id="95WCk-WCtiNWoIf9ukJk-263" value="}" style="text;html=1;align=center;verticalAlign=middle;resizable=0;points=[];autosize=1;strokeColor=none;fillColor=none;" vertex="1" parent="1">
          <mxGeometry x="4205" y="2148" width="30" height="30" as="geometry" />
        </mxCell>
        <mxCell id="95WCk-WCtiNWoIf9ukJk-264" value="{" style="text;html=1;align=center;verticalAlign=middle;resizable=0;points=[];autosize=1;strokeColor=none;fillColor=none;" vertex="1" parent="1">
          <mxGeometry x="3335" y="1048" width="30" height="30" as="geometry" />
        </mxCell>
      </root>
    </mxGraphModel>
  </diagram>
</mxfile>
